<svg width="178" height="56" viewBox="0 0 178 56" fill="none" xmlns="http://www.w3.org/2000/svg">
<path d="M93.6893 14.0701C93.6893 16.0881 92.0789 17.7137 90.0796 17.7137C88.08 17.7137 86.4695 16.0881 86.4695 14.0701C86.4695 12.0521 88.0245 10.4264 90.0796 10.4264C92.1343 10.4825 93.6893 12.1081 93.6893 14.0701ZM78.8055 21.4134C78.8055 21.7497 78.8055 22.3103 78.8055 22.3103C78.8055 22.3103 77.0841 20.0681 73.4185 20.0681C67.3654 20.0681 62.6445 24.7207 62.6445 31.1671C62.6445 37.5576 67.3095 42.2664 73.4185 42.2664C77.1396 42.2664 78.8055 39.9681 78.8055 39.9681V40.9208C78.8055 41.3692 79.1388 41.7056 79.583 41.7056H84.0816V20.6286C84.0816 20.6286 79.9718 20.6286 79.583 20.6286C79.1388 20.6286 78.8055 21.021 78.8055 21.4134ZM78.8055 34.9229C77.9725 36.1562 76.3066 37.2212 74.3074 37.2212C70.7528 37.2212 68.0315 34.979 68.0315 31.1671C68.0315 27.3553 70.7528 25.1131 74.3074 25.1131C76.2511 25.1131 78.028 26.2343 78.8055 27.4114V34.9229ZM87.4139 20.6286H92.7454V41.7056H87.4139V20.6286ZM167.052 20.0681C163.387 20.0681 161.665 22.3103 161.665 22.3103V10.4825H156.334V41.7056C156.334 41.7056 160.444 41.7056 160.832 41.7056C161.277 41.7056 161.61 41.3132 161.61 40.9208V39.9681C161.61 39.9681 163.332 42.2664 166.997 42.2664C173.05 42.2664 177.771 37.5576 177.771 31.1671C177.771 24.7768 173.05 20.0681 167.052 20.0681ZM166.164 37.1652C164.109 37.1652 162.499 36.1001 161.665 34.8669V27.3553C162.499 26.2343 164.276 25.057 166.164 25.057C169.718 25.057 172.439 27.2993 172.439 31.1111C172.439 34.9229 169.718 37.1652 166.164 37.1652ZM153.557 29.2052V41.7616H148.226V29.8218C148.226 26.3463 147.115 24.9449 144.116 24.9449C142.506 24.9449 140.839 25.7858 139.784 27.019V41.7056H134.453V20.6286H138.674C139.118 20.6286 139.451 21.021 139.451 21.4134V22.3103C141.006 20.6847 143.061 20.0681 145.116 20.0681C147.448 20.0681 149.392 20.7407 150.947 22.0861C152.835 23.6556 153.557 25.6737 153.557 29.2052ZM121.513 20.0681C117.848 20.0681 116.126 22.3103 116.126 22.3103V10.4825H110.794V41.7056C110.794 41.7056 114.904 41.7056 115.293 41.7056C115.737 41.7056 116.07 41.3132 116.07 40.9208V39.9681C116.07 39.9681 117.792 42.2664 121.457 42.2664C127.511 42.2664 132.231 37.5576 132.231 31.1671C132.287 24.7768 127.566 20.0681 121.513 20.0681ZM120.624 37.1652C118.57 37.1652 116.959 36.1001 116.126 34.8669V27.3553C116.959 26.2343 118.736 25.057 120.624 25.057C124.179 25.057 126.9 27.2993 126.9 31.1111C126.9 34.9229 124.179 37.1652 120.624 37.1652ZM106.185 20.0681C107.796 20.0681 108.629 20.3483 108.629 20.3483V25.3374C108.629 25.3374 104.186 23.8238 101.409 27.019V41.7616H96.0773V20.6286C96.0773 20.6286 100.187 20.6286 100.576 20.6286C101.02 20.6286 101.353 21.021 101.353 21.4134V22.3103C102.353 21.1331 104.519 20.0681 106.185 20.0681ZM50.8156 39.7997C50.5378 39.1273 50.26 38.3984 49.9826 37.7818C49.538 36.7728 49.0938 35.8198 48.705 34.9229L48.6495 34.8669C44.8175 26.4584 40.7077 17.9379 36.3761 9.52953L36.2095 9.19318C35.7652 8.35236 35.3209 7.45547 34.8766 6.55857C34.3213 5.54956 33.7659 4.48447 32.8773 3.47548C31.1002 1.23323 28.5455 0 25.8242 0C23.0474 0 20.5483 1.23323 18.7156 3.36336C17.8826 4.37236 17.2717 5.43744 16.7163 6.44646C16.272 7.34335 15.8278 8.24024 15.3835 9.0811L15.2169 9.41741C10.9406 17.8258 6.77539 26.3463 2.9434 34.7548L2.88786 34.8669C2.49911 35.7638 2.05482 36.7167 1.61054 37.7257C1.33285 38.3423 1.05517 39.0149 0.777493 39.7437C0.0555253 41.818 -0.166619 43.7799 0.111061 45.7979C0.721959 50.0022 3.49876 53.5337 7.33074 55.1032C8.77469 55.7196 10.2742 56 11.8292 56C12.2735 56 12.8288 55.944 13.2731 55.888C15.1058 55.6636 16.994 55.0472 18.8267 53.9821C21.1037 52.6925 23.2696 50.8429 25.7132 48.1522C28.1568 50.8429 30.3782 52.6925 32.5996 53.9821C34.4324 55.0472 36.3206 55.6636 38.1533 55.888C38.5976 55.944 39.1527 56 39.5974 56C41.1524 56 42.7074 55.7196 44.0955 55.1032C47.983 53.5337 50.7043 49.9458 51.3153 45.7979C51.7595 43.8359 51.5376 41.874 50.8156 39.7997ZM25.7687 42.7148C22.7698 38.9029 20.826 35.3153 20.1596 32.2883C19.8819 30.999 19.8264 29.8779 19.993 28.8689C20.104 27.972 20.4372 27.1872 20.8815 26.5145C21.9367 25.001 23.7139 24.048 25.7687 24.048C27.8235 24.048 29.6563 24.9449 30.6559 26.5145C31.1002 27.1872 31.4334 27.972 31.5445 28.8689C31.7111 29.8779 31.6556 31.0551 31.3778 32.2883C30.7114 35.2593 28.7677 38.8469 25.7687 42.7148ZM47.9275 45.3495C47.5388 48.2642 45.595 50.7869 42.8738 51.9077C41.5411 52.4685 40.0971 52.6365 38.653 52.4685C37.2647 52.3001 35.8763 51.8517 34.4324 51.0109C32.4331 49.8898 30.4338 48.1522 28.1012 45.5735C31.7666 41.0332 33.988 36.8849 34.8211 33.1852C35.2099 31.4475 35.2654 29.8779 35.0988 28.4204C34.8766 27.019 34.3768 25.7297 33.5993 24.6086C31.8777 22.0861 28.9898 20.6286 25.7687 20.6286C22.5476 20.6286 19.6597 22.1421 17.9382 24.6086C17.1606 25.7297 16.6608 27.019 16.4387 28.4204C16.2165 29.8779 16.272 31.5035 16.7163 33.1852C17.5494 36.8849 19.8264 41.0892 23.4362 45.6295C21.1592 48.2082 19.1044 49.9458 17.1051 51.0669C15.6611 51.9077 14.2727 52.3565 12.8843 52.5245C11.3849 52.6925 9.94094 52.4685 8.66362 51.9641C5.94234 50.8429 3.99859 48.3202 3.60983 45.4055C3.44322 44.0039 3.5543 42.6028 4.10967 41.0332C4.27626 40.4724 4.55394 39.9121 4.83161 39.2393C5.2204 38.3423 5.66466 37.3894 6.10897 36.4364L6.16449 36.3243C9.9965 27.972 14.1061 19.4514 18.3824 11.1552L18.5491 10.8188C18.9933 9.97799 19.4376 9.0811 19.8819 8.24024C20.3262 7.34335 20.826 6.50249 21.4369 5.77376C22.6032 4.42843 24.1582 3.6997 25.8798 3.6997C27.6014 3.6997 29.1564 4.42843 30.3227 5.77376C30.9336 6.50249 31.4334 7.34335 31.8777 8.24024C32.322 9.0811 32.7663 9.97799 33.2106 10.8188L33.3771 11.1552C37.5979 19.5075 41.7075 28.028 45.5396 36.3804V36.4364C45.9838 37.3333 46.3725 38.3423 46.8168 39.2393C47.0946 39.9121 47.3723 40.4724 47.5388 41.0332C47.983 42.4904 48.1498 43.8919 47.9275 45.3495Z" fill="#B4B2C9"/>
</svg>
