<svg width="43" height="44" viewBox="0 0 43 44" fill="none" xmlns="http://www.w3.org/2000/svg">
<path d="M25.8681 44C26.2018 44 26.5268 43.8944 26.7964 43.6984C27.066 43.5024 27.2662 43.2262 27.3683 42.9094L29.1017 37.5383C29.8297 37.1831 30.5262 36.784 31.1912 36.3346L36.7255 37.5226C37.0518 37.592 37.3918 37.5564 37.6965 37.4209C38.0012 37.2853 38.2549 37.0568 38.4211 36.7683L42.7892 29.2286C42.956 28.9402 43.0267 28.6064 42.991 28.2754C42.9553 27.9444 42.8151 27.6333 42.5907 27.3869L38.7929 23.2069C38.8482 22.4053 38.8482 21.601 38.7929 20.7994L42.5907 16.6131C42.8151 16.3667 42.9553 16.0556 42.991 15.7246C43.0267 15.3936 42.956 15.0598 42.7892 14.7714L38.4211 7.22857C38.2545 6.94061 38.0006 6.71275 37.6959 6.57778C37.3912 6.44281 37.0514 6.40767 36.7255 6.47743L31.1912 7.66543C30.5294 7.21914 29.8297 6.81686 29.1049 6.46172L27.3683 1.09057C27.2662 0.773834 27.066 0.497581 26.7964 0.301598C26.5268 0.105614 26.2018 1.14441e-05 25.8681 0H17.1319C16.7982 1.14441e-05 16.4732 0.105614 16.2036 0.301598C15.934 0.497581 15.7338 0.773834 15.6317 1.09057L13.9014 6.45857C13.1754 6.81263 12.475 7.21695 11.8056 7.66857L6.27452 6.47743C5.94821 6.40796 5.60822 6.44356 5.30351 6.57911C4.99879 6.71467 4.74509 6.94317 4.57895 7.23171L0.210798 14.7714C0.0439971 15.0598 -0.0266547 15.3936 0.00903016 15.7246C0.044715 16.0556 0.184892 16.3667 0.40935 16.6131L4.20705 20.7994C4.15204 21.5989 4.15204 22.4011 4.20705 23.2006L0.40935 27.3869C0.184892 27.6333 0.044715 27.9444 0.00903016 28.2754C-0.0266547 28.6064 0.0439971 28.9402 0.210798 29.2286L4.57895 36.7714C4.74555 37.0594 4.99945 37.2873 5.30413 37.4222C5.6088 37.5572 5.94855 37.5923 6.27452 37.5226L11.8056 36.3314C12.4738 36.7809 13.1734 37.1863 13.9014 37.5414L15.6348 42.9094C15.7366 43.2251 15.9359 43.5007 16.2042 43.6966C16.4726 43.8924 16.7962 43.9987 17.1287 44H25.865H25.8681ZM24.7147 40.8571H18.2853L16.4952 35.3037L15.2882 34.716C14.6948 34.4264 14.1219 34.0967 13.5737 33.7291L12.458 32.9749L6.73465 34.2069L3.52 28.6503L7.44377 24.3194L7.34922 22.9869C7.30394 22.3297 7.30394 21.6703 7.34922 21.0131L7.44377 19.6806L3.5137 15.3497L6.7315 9.79314L12.4548 11.022L13.5705 10.2709C14.1188 9.9033 14.6916 9.57358 15.285 9.284L16.4921 8.69629L18.2853 3.14286H24.721L26.5174 8.69943L27.7213 9.284C28.314 9.5729 28.8859 9.90265 29.4326 10.2709L30.5452 11.022L36.2717 9.79314L39.4863 15.3497L35.5594 19.6806L35.6539 21.0131C35.6994 21.6713 35.6994 22.3318 35.6539 22.99L35.5594 24.3226L39.4895 28.6503L36.2717 34.2069L30.5452 32.9811L29.4326 33.7291C28.8859 34.0974 28.3141 34.4272 27.7213 34.716L26.5174 35.3006L24.7178 40.8571H24.7147ZM21.5 31.4286C24.0076 31.4286 26.4125 30.4352 28.1856 28.667C29.9587 26.8988 30.9549 24.5006 30.9549 22C30.9549 19.4994 29.9587 17.1012 28.1856 15.333C26.4125 13.5648 24.0076 12.5714 21.5 12.5714C18.9924 12.5714 16.5875 13.5648 14.8144 15.333C13.0413 17.1012 12.0451 19.4994 12.0451 22C12.0451 24.5006 13.0413 26.8988 14.8144 28.667C16.5875 30.4352 18.9924 31.4286 21.5 31.4286ZM21.5 28.2857C19.8283 28.2857 18.225 27.6235 17.0429 26.4447C15.8608 25.2659 15.1968 23.6671 15.1968 22C15.1968 20.3329 15.8608 18.7341 17.0429 17.5553C18.225 16.3765 19.8283 15.7143 21.5 15.7143C23.1717 15.7143 24.775 16.3765 25.9571 17.5553C27.1392 18.7341 27.8032 20.3329 27.8032 22C27.8032 23.6671 27.1392 25.2659 25.9571 26.4447C24.775 27.6235 23.1717 28.2857 21.5 28.2857Z" fill="white"/>
</svg>
