<svg width="43" height="40" viewBox="0 0 43 40" fill="none" xmlns="http://www.w3.org/2000/svg">
<path d="M21.5 3.07692C20.6854 3.07692 19.9042 3.4011 19.3282 3.97813C18.7522 4.55517 18.4286 5.3378 18.4286 6.15385C18.4286 6.9699 18.7522 7.75252 19.3282 8.32956C19.9042 8.90659 20.6854 9.23077 21.5 9.23077C22.3146 9.23077 23.0958 8.90659 23.6718 8.32956C24.2478 7.75252 24.5714 6.9699 24.5714 6.15385C24.5714 5.3378 24.2478 4.55517 23.6718 3.97813C23.0958 3.4011 22.3146 3.07692 21.5 3.07692ZM15.3571 6.15385C15.3571 4.52174 16.0043 2.95649 17.1563 1.80242C18.3084 0.64835 19.8708 0 21.5 0C23.1292 0 24.6916 0.64835 25.8437 1.80242C26.9957 2.95649 27.6429 4.52174 27.6429 6.15385C27.6429 7.78595 26.9957 9.3512 25.8437 10.5053C24.6916 11.6593 23.1292 12.3077 21.5 12.3077C19.8708 12.3077 18.3084 11.6593 17.1563 10.5053C16.0043 9.3512 15.3571 7.78595 15.3571 6.15385ZM36.0893 4.61538C35.4783 4.61538 34.8924 4.85852 34.4604 5.29129C34.0284 5.72407 33.7857 6.31104 33.7857 6.92308C33.7857 7.53512 34.0284 8.12209 34.4604 8.55486C34.8924 8.98764 35.4783 9.23077 36.0893 9.23077C36.7002 9.23077 37.2862 8.98764 37.7182 8.55486C38.1502 8.12209 38.3929 7.53512 38.3929 6.92308C38.3929 6.31104 38.1502 5.72407 37.7182 5.29129C37.2862 4.85852 36.7002 4.61538 36.0893 4.61538ZM30.7143 6.92308C30.7143 6.21596 30.8533 5.51577 31.1234 4.86247C31.3936 4.20918 31.7895 3.61559 32.2886 3.11558C32.7877 2.61557 33.3802 2.21894 34.0324 1.94834C34.6845 1.67774 35.3834 1.53846 36.0893 1.53846C36.7951 1.53846 37.4941 1.67774 38.1462 1.94834C38.7983 2.21894 39.3909 2.61557 39.89 3.11558C40.3891 3.61559 40.785 4.20918 41.0551 4.86247C41.3253 5.51577 41.4643 6.21596 41.4643 6.92308C41.4643 8.35117 40.898 9.72076 39.89 10.7306C38.882 11.7404 37.5148 12.3077 36.0893 12.3077C34.6637 12.3077 33.2966 11.7404 32.2886 10.7306C31.2806 9.72076 30.7143 8.35117 30.7143 6.92308ZM4.60714 6.92308C4.60714 6.31104 4.84984 5.72407 5.28184 5.29129C5.71385 4.85852 6.29977 4.61538 6.91071 4.61538C7.52166 4.61538 8.10758 4.85852 8.53959 5.29129C8.97159 5.72407 9.21429 6.31104 9.21429 6.92308C9.21429 7.53512 8.97159 8.12209 8.53959 8.55486C8.10758 8.98764 7.52166 9.23077 6.91071 9.23077C6.29977 9.23077 5.71385 8.98764 5.28184 8.55486C4.84984 8.12209 4.60714 7.53512 4.60714 6.92308ZM6.91071 1.53846C5.48518 1.53846 4.11802 2.10577 3.11002 3.11558C2.10201 4.12539 1.53571 5.49499 1.53571 6.92308C1.53571 8.35117 2.10201 9.72076 3.11002 10.7306C4.11802 11.7404 5.48518 12.3077 6.91071 12.3077C8.33625 12.3077 9.7034 11.7404 10.7114 10.7306C11.7194 9.72076 12.2857 8.35117 12.2857 6.92308C12.2857 5.49499 11.7194 4.12539 10.7114 3.11558C9.7034 2.10577 8.33625 1.53846 6.91071 1.53846ZM10.214 33.0846C9.51947 33.5432 8.71392 33.8049 7.88288 33.8419C7.05183 33.8788 6.2263 33.6897 5.49391 33.2945C4.76152 32.8993 4.14959 32.3129 3.72308 31.5974C3.29657 30.8819 3.07138 30.0641 3.07143 29.2308V19.2308C3.07143 19.0268 3.15233 18.8311 3.29633 18.6868C3.44033 18.5426 3.63564 18.4615 3.83929 18.4615H10.0297C10.1698 17.3351 10.6196 16.2698 11.329 15.3846H3.83929C2.82104 15.3846 1.84451 15.7898 1.1245 16.5111C0.404495 17.2324 3.44603e-07 18.2107 3.44603e-07 19.2308V29.2308C-0.000395772 30.5555 0.340713 31.8579 0.990286 33.0117C1.63986 34.1656 2.57588 35.1319 3.70768 35.8169C4.83949 36.502 6.12871 36.8826 7.45048 36.922C8.77225 36.9613 10.0818 36.6581 11.2522 36.0415C10.7725 35.1082 10.4232 34.1133 10.214 33.0846ZM31.7478 36.0415C32.9182 36.6581 34.2277 36.9613 35.5495 36.922C36.8713 36.8826 38.1605 36.502 39.2923 35.8169C40.4241 35.1319 41.3601 34.1656 42.0097 33.0117C42.6593 31.8579 43.0004 30.5555 43 29.2308V19.2308C43 18.2107 42.5955 17.2324 41.8755 16.5111C41.1555 15.7898 40.179 15.3846 39.1607 15.3846H31.671C32.3797 16.2702 32.8295 17.3353 32.9702 18.4615H39.1607C39.3644 18.4615 39.5597 18.5426 39.7037 18.6868C39.8477 18.8311 39.9286 19.0268 39.9286 19.2308V29.2308C39.9286 30.0641 39.7034 30.8819 39.2769 31.5974C38.8504 32.3129 38.2385 32.8993 37.5061 33.2945C36.7737 33.6897 35.9482 33.8788 35.1171 33.8419C34.2861 33.8049 33.4805 33.5432 32.786 33.0846C32.5768 34.1132 32.2275 35.1082 31.7478 36.0415ZM16.125 15.3846C15.1068 15.3846 14.1302 15.7898 13.4102 16.5111C12.6902 17.2324 12.2857 18.2107 12.2857 19.2308V30.7692C12.2857 33.2174 13.2565 35.5653 14.9845 37.2964C16.7125 39.0275 19.0562 40 21.5 40C23.9438 40 26.2875 39.0275 28.0155 37.2964C29.7435 35.5653 30.7143 33.2174 30.7143 30.7692V19.2308C30.7143 18.2107 30.3098 17.2324 29.5898 16.5111C28.8698 15.7898 27.8932 15.3846 26.875 15.3846H16.125ZM15.3571 19.2308C15.3571 19.0268 15.438 18.8311 15.582 18.6868C15.726 18.5426 15.9214 18.4615 16.125 18.4615H26.875C27.0786 18.4615 27.274 18.5426 27.418 18.6868C27.562 18.8311 27.6429 19.0268 27.6429 19.2308V30.7692C27.6429 32.4013 26.9957 33.9666 25.8437 35.1207C24.6916 36.2747 23.1292 36.9231 21.5 36.9231C19.8708 36.9231 18.3084 36.2747 17.1563 35.1207C16.0043 33.9666 15.3571 32.4013 15.3571 30.7692V19.2308Z" fill="white"/>
</svg>
