<svg width="43" height="49" viewBox="0 0 43 49" fill="none" xmlns="http://www.w3.org/2000/svg">
<path d="M10.8421 6.1508C12.2103 3.77468 14.3379 1.92447 16.8848 0.895919C19.4317 -0.132629 22.251 -0.280126 24.8919 0.477002C27.5328 1.23413 29.8429 2.85217 31.453 5.07249C33.063 7.2928 33.88 9.9872 33.7733 12.725C33.6667 15.4628 32.6426 18.0859 30.8647 20.175C29.0869 22.2641 26.6579 23.6987 23.966 24.2493C21.2741 24.8 18.4749 24.4349 16.0156 23.2125C13.5563 21.9901 11.579 19.981 10.3999 17.5062C9.61203 18.0808 8.66084 18.3898 7.68471 18.3882H6.149V19.1691C6.149 19.751 6.37014 20.2808 6.73257 20.6819C7.04228 20.3328 7.4513 20.0861 7.90516 19.9746C8.35902 19.8631 8.83618 19.892 9.27311 20.0576C9.71005 20.2233 10.086 20.5177 10.351 20.9016C10.6159 21.2856 10.7572 21.7409 10.7561 22.207C10.7559 22.5271 10.6886 22.8436 10.5585 23.1362C10.4284 23.4288 10.2384 23.6911 10.0007 23.9062C9.76296 24.1213 9.48277 24.2845 9.17809 24.3853C8.87341 24.4861 8.55096 24.5223 8.23143 24.4916C6.8481 24.4431 5.53765 23.8612 4.57623 22.8683C3.61481 21.8754 3.07752 20.5492 3.07757 19.1691V7.67895C3.07757 7.27284 3.23937 6.88338 3.52737 6.59622C3.81537 6.30906 4.20599 6.14774 4.61329 6.14774H10.7561L10.8421 6.1508ZM12.2919 12.6155C12.3875 15.0187 13.4245 17.2886 15.1801 18.9379C16.9358 20.5871 19.27 21.4842 21.6817 21.4365C24.0933 21.3888 26.3901 20.4001 28.0787 18.6827C29.7673 16.9653 30.7132 14.6562 30.7132 12.2511C30.7132 9.84608 29.7673 7.53693 28.0787 5.81953C26.3901 4.10213 24.0933 3.11342 21.6817 3.06571C19.27 3.018 16.9358 3.91509 15.1801 5.56436C13.4245 7.21363 12.3875 9.48355 12.2919 11.8867V12.6155ZM9.22043 11.8285V9.21015H6.149V15.3258H7.68471C8.09201 15.3258 8.48263 15.1645 8.77063 14.8773C9.05863 14.5901 9.22043 14.2007 9.22043 13.7946V12.6737C9.21086 12.3921 9.21086 12.1102 9.22043 11.8285ZM0 33.688C0 30.2795 2.7735 27.5632 6.1705 27.5632H36.8571C38.4863 27.5632 40.0488 28.2084 41.2008 29.3571C42.3528 30.5057 43 32.0636 43 33.688C43 38.8665 40.4415 42.7711 36.4425 45.3159C32.5049 47.8179 27.1975 49 21.5 49C15.8025 49 10.4951 47.8179 6.5575 45.3159C2.5585 42.7741 0 38.8634 0 33.688ZM6.1705 30.6256C4.44743 30.6256 3.07143 31.9945 3.07143 33.688C3.07143 37.6967 4.98186 40.6825 8.20993 42.7313C11.4964 44.8229 16.1711 45.9376 21.5 45.9376C26.8289 45.9376 31.5036 44.8229 34.7901 42.7313C38.0151 40.6794 39.9286 37.6997 39.9286 33.688C39.9286 32.8758 39.605 32.0968 39.029 31.5225C38.453 30.9482 37.6717 30.6256 36.8571 30.6256H6.1705Z" fill="white"/>
</svg>
