<svg width="50" height="50" viewBox="0 0 50 50" fill="none" xmlns="http://www.w3.org/2000/svg">
<path d="M24.9998 3.72209e-05C18.5953 3.72209e-05 12.1908 2.43766 7.31351 7.315C-1.79112 16.4217 -2.39532 30.8558 5.503 40.6709C5.06509 39.4974 4.97346 38.2229 5.23902 36.9988C5.50459 35.7748 6.11616 34.6528 7.001 33.7664C7.98592 32.7828 9.25903 32.1393 10.635 31.9295C12.011 31.7196 13.4181 31.9544 14.6514 32.5996C12.7447 29.9905 11.8919 26.7583 12.2633 23.5481C12.6347 20.3379 14.2029 17.3858 16.6549 15.2808C19.107 13.1759 22.2626 12.073 25.492 12.1922C28.7214 12.3113 31.7871 13.6438 34.0774 15.9238C35.219 17.0654 36.7673 17.7067 38.3818 17.7067C39.9962 17.7067 41.5446 17.0654 42.6862 15.9238C43.8278 14.7822 44.4691 13.2338 44.4691 11.6194C44.4691 10.0049 43.8278 8.45659 42.6862 7.315C40.3652 4.99093 37.608 3.14832 34.5728 1.89299C31.5376 0.637664 28.2844 -0.0056377 24.9998 3.72209e-05ZM44.5008 9.33593C44.9381 10.5093 45.0291 11.7836 44.7632 13.0072C44.4973 14.2308 43.8856 15.3523 43.0008 16.2384C42.0158 17.2219 40.7427 17.8654 39.3667 18.0753C37.9907 18.2851 36.5837 18.0503 35.3504 17.4051C37.1641 19.8783 38.033 22.919 37.7999 25.9771C37.5668 29.0353 36.2471 31.9091 34.0795 34.0789C32.9379 35.2202 32.2964 36.7683 32.2962 38.3825C32.2961 39.1818 32.4535 39.9733 32.7593 40.7118C33.0651 41.4503 33.5133 42.1213 34.0784 42.6866C34.6436 43.2519 35.3145 43.7003 36.0529 44.0063C36.7913 44.3122 37.5828 44.4698 38.3821 44.4698C39.9963 44.47 41.5446 43.829 42.6862 42.6876C51.7908 33.583 52.395 19.1489 44.4988 9.33593H44.5008ZM11.6158 32.2955C10.8162 32.2949 10.0243 32.452 9.28547 32.7577C8.54661 33.0635 7.87528 33.5119 7.30986 34.0773C6.74445 34.6427 6.29604 35.3141 5.9903 36.0529C5.68455 36.7918 5.52746 37.5836 5.52801 38.3833C5.52746 39.1829 5.68455 39.9748 5.9903 40.7136C6.29604 41.4525 6.74445 42.1238 7.30986 42.6892C7.87528 43.2546 8.54661 43.703 9.28547 44.0088C10.0243 44.3145 10.8162 44.4716 11.6158 44.4711C12.4154 44.4716 13.2073 44.3145 13.9462 44.0088C14.685 43.703 15.3564 43.2546 15.9218 42.6892C16.4872 42.1238 16.9356 41.4525 17.2413 40.7136C17.5471 39.9748 17.7042 39.1829 17.7036 38.3833C17.7045 37.5836 17.5476 36.7917 17.2421 36.0527C16.9366 35.3138 16.4885 34.6423 15.9232 34.0767C15.358 33.5111 14.6868 33.0625 13.9481 32.7565C13.2093 32.4505 12.4175 32.2931 11.6179 32.2934L11.6158 32.2955ZM32.5961 35.3519C30.3924 36.9672 27.7311 37.8381 24.9988 37.8381C22.2665 37.8381 19.6052 36.9672 17.4015 35.3519C18.0461 36.5853 18.2805 37.9922 18.0707 39.3681C17.8609 40.7439 17.2178 42.017 16.2348 43.0022C15.3484 43.8872 14.2263 44.4987 13.0022 44.7639C11.778 45.0291 10.5035 44.9369 9.33028 44.4982C18.4474 51.8381 31.5502 51.8381 40.6652 44.4982C39.4923 44.9364 38.2182 45.0284 36.9945 44.7632C35.7708 44.498 34.649 43.8868 33.7628 43.0022C32.7793 42.0173 32.1357 40.7442 31.9259 39.3682C31.716 37.9922 31.9508 36.5852 32.5961 35.3519Z" fill="white"/>
</svg>
